<?xml version="1.0" standalone="no"?>
<!DOCTYPE svg PUBLIC "-//W3C//DTD SVG 20010904//EN"
 "http://www.w3.org/TR/2001/REC-SVG-20010904/DTD/svg10.dtd">
<svg version="1.0" xmlns="http://www.w3.org/2000/svg"
 width="700.000000pt" height="425.000000pt" viewBox="0 0 700.000000 425.000000"
 preserveAspectRatio="xMidYMid meet">

<g transform="translate(0.000000,425.000000) scale(0.100000,-0.100000)"
fill="#000000" stroke="none">
<path d="M3140 3584 c-8 -2 -107 -8 -220 -14 -770 -38 -1370 -172 -1574 -351
-64 -57 -88 -100 -88 -160 0 -59 27 -100 108 -161 47 -36 221 -118 250 -118
10 0 14 12 14 38 0 132 212 262 557 342 162 37 182 41 453 80 328 47 901 62
1340 34 432 -26 627 -52 905 -121 207 -50 365 -118 447 -191 57 -52 80 -91 87
-149 l6 -42 70 30 c257 108 336 203 276 334 -32 70 -126 138 -282 203 -302
125 -789 204 -1489 241 -185 10 -823 14 -860 5z"/>
<path d="M3070 3229 c-267 -23 -345 -32 -460 -50 -263 -40 -442 -91 -555 -155
-106 -60 -145 -106 -145 -170 0 -64 48 -113 166 -170 51 -25 97 -43 102 -40 5
3 9 20 10 37 2 62 94 142 218 189 157 58 418 107 699 130 155 13 687 13 835 0
578 -49 920 -171 920 -329 0 -17 5 -31 10 -31 6 0 43 15 83 34 196 93 234 180
128 286 -136 136 -479 219 -1116 270 -150 12 -755 11 -895 -1z"/>
<path d="M600 1530 c-228 -32 -385 -180 -398 -374 -12 -192 120 -357 333 -417
69 -19 522 -20 580 -1 169 57 268 149 314 291 15 45 14 163 -1 215 -37 128
-159 233 -318 274 -67 17 -415 25 -510 12z m444 -212 c24 -7 61 -32 87 -58 80
-77 89 -172 22 -249 -69 -81 -89 -86 -328 -86 l-210 0 -54 30 c-75 42 -106 91
-106 169 0 93 47 153 150 193 42 16 385 17 439 1z"/>
<path d="M1542 1441 c-45 -54 -78 -101 -75 -105 4 -3 179 -6 389 -6 l383 0 28
-24 28 -25 -26 -26 -25 -26 -265 -2 -264 -2 -3 -102 -3 -102 279 -3 c245 -3
281 -5 305 -21 29 -19 28 -35 -6 -57 -18 -12 -82 -15 -366 -18 -189 -1 -349
-6 -356 -10 -8 -4 -28 -25 -45 -47 -17 -22 -49 -59 -71 -82 -21 -23 -39 -47
-39 -53 0 -8 120 -10 443 -8 l442 3 72 29 c83 32 157 92 178 143 8 20 15 56
15 82 0 43 -8 62 -52 124 -10 13 -10 21 -1 35 61 86 71 173 27 238 -39 57 -82
91 -151 118 -96 39 -166 46 -474 46 l-286 0 -81 -99z"/>
<path d="M2647 1533 c-4 -3 -7 -188 -7 -410 l0 -403 364 0 365 0 70 91 c39 50
71 97 71 103 0 8 -87 11 -307 11 l-308 0 -3 53 -3 52 218 0 219 0 74 96 c41
53 75 98 75 101 0 2 -130 5 -290 6 l-290 2 -3 48 -3 47 238 0 239 0 74 97 c41
53 77 101 78 105 4 10 -862 11 -871 1z"/>
<path d="M3693 1503 c-15 -21 -49 -63 -75 -94 -26 -31 -48 -62 -48 -68 0 -8
104 -11 366 -11 378 0 385 -1 432 -43 47 -43 16 -127 -56 -147 -22 -6 -182
-10 -399 -10 l-363 0 0 -205 0 -205 125 0 125 0 0 100 c0 95 1 100 23 105 12
2 141 6 287 8 243 2 269 4 317 24 157 63 234 189 204 331 -22 100 -73 157
-182 206 -84 37 -175 46 -463 46 l-265 0 -28 -37z"/>
<path d="M4670 1130 l0 -411 122 3 121 3 -2 128 c-2 112 -1 127 14 127 9 0
100 -58 202 -130 l186 -130 186 0 c116 0 181 4 176 9 -9 9 -202 141 -449 306
-59 39 -105 77 -105 86 -1 9 11 25 27 34 99 65 522 368 522 376 0 5 -76 9
-173 9 l-174 0 -134 -95 c-74 -52 -162 -115 -197 -140 -34 -26 -67 -43 -73
-40 -7 5 -10 51 -8 129 1 68 -1 128 -5 134 -5 8 -45 12 -122 12 l-114 0 0
-410z"/>
<path d="M5788 1530 c-1 -5 -1 -184 2 -396 5 -371 6 -386 25 -400 34 -25 65
-28 121 -10 43 14 97 54 303 226 138 116 255 210 261 210 6 0 11 -81 12 -217
l3 -218 123 -3 122 -3 0 368 c0 347 -1 370 -20 400 -30 51 -108 61 -177 25
-21 -12 -245 -195 -422 -346 -55 -47 -96 -75 -102 -69 -5 5 -10 105 -11 223
l-3 215 -117 3 c-73 2 -117 -1 -120 -8z"/>
<path d="M366 394 c-9 -8 -16 -22 -16 -30 0 -8 -4 -22 -9 -32 -29 -56 -63
-154 -55 -162 5 -5 21 -6 35 -3 22 4 29 15 48 81 13 43 25 83 27 90 9 30 30 1
55 -74 34 -101 50 -119 87 -95 11 6 9 18 -9 57 -12 27 -25 58 -29 69 -28 76
-44 104 -64 109 -35 9 -54 7 -70 -10z"/>
<path d="M862 398 c-14 -14 -17 -195 -4 -215 5 -8 41 -16 83 -19 62 -6 77 -4
88 10 19 23 8 30 -57 36 -53 5 -57 7 -57 30 0 21 5 25 30 28 89 8 101 34 19
42 -38 4 -50 9 -52 24 -5 25 14 36 69 36 51 0 64 7 48 27 -15 17 -150 18 -167
1z"/>
<path d="M1442 402 c-7 -5 -26 -44 -43 -88 -17 -43 -37 -86 -44 -94 -13 -15
-20 -47 -17 -82 3 -26 37 -22 56 7 15 23 23 25 86 25 63 0 71 -2 86 -25 19
-29 50 -33 58 -8 8 29 0 73 -17 86 -15 12 -33 49 -57 117 -21 58 -69 86 -108
62z m70 -111 c10 -30 15 -57 12 -62 -7 -12 -81 -12 -88 0 -3 4 1 26 9 47 7 22
16 47 19 57 10 31 28 14 48 -42z"/>
<path d="M2035 405 c-5 -2 -22 -6 -36 -9 -14 -3 -38 -18 -52 -32 -39 -38 -38
-111 1 -154 48 -54 135 -59 192 -11 40 33 53 105 26 146 -26 40 -96 72 -131
60z m68 -67 c21 -25 22 -76 1 -106 -11 -16 -25 -22 -51 -22 -50 0 -73 23 -73
75 0 76 74 109 123 53z"/>
<path d="M2494 399 c-5 -8 -9 -166 -5 -215 1 -15 106 -26 150 -16 20 4 43 19
55 35 20 27 20 28 1 63 -14 26 -16 37 -7 46 19 19 14 43 -14 69 -22 20 -37 24
-99 26 -44 2 -77 -2 -81 -8z m131 -43 c16 -12 17 -16 6 -30 -18 -21 -77 -21
-85 0 -14 38 41 58 79 30z m13 -118 c3 -27 2 -28 -42 -28 -49 0 -61 9 -51 41
6 17 14 20 48 17 37 -3 42 -6 45 -30z"/>
<path d="M3108 393 c-22 -25 -99 -216 -90 -224 11 -12 62 2 62 16 0 17 23 25
69 25 27 0 44 -7 61 -25 17 -18 30 -23 44 -19 30 9 29 7 8 61 -11 26 -28 68
-37 93 -26 70 -42 90 -74 90 -15 0 -35 -8 -43 -17z m65 -90 c9 -26 13 -51 11
-55 -3 -4 -21 -8 -40 -8 -37 0 -56 22 -35 43 6 6 11 21 11 32 0 54 34 46 53
-12z"/>
<path d="M3653 399 c-63 -18 -84 -91 -38 -133 30 -28 31 -40 5 -68 -21 -23
-18 -38 7 -38 17 0 83 68 83 86 0 7 -16 21 -35 33 -19 11 -35 27 -35 35 0 32
55 62 97 54 16 -3 19 -17 23 -103 4 -71 9 -100 18 -99 43 4 42 0 42 114 0 98
-2 110 -19 120 -24 12 -104 12 -148 -1z"/>
<path d="M4508 398 c-24 -19 -102 -218 -91 -229 13 -13 58 5 66 25 9 22 105
23 113 1 9 -22 41 -37 64 -30 20 6 22 -1 -30 130 -4 11 -14 36 -21 55 -14 41
-35 60 -64 60 -12 0 -28 -6 -37 -12z m57 -84 c25 -61 21 -74 -25 -74 -33 0
-40 3 -40 20 0 11 4 28 9 38 5 9 12 25 15 35 9 27 24 20 41 -19z"/>
<path d="M4998 399 c-15 -9 -18 -26 -18 -119 0 -100 2 -109 20 -115 25 -8 40
1 40 24 0 27 21 41 63 41 49 0 94 26 106 61 14 40 -14 91 -59 106 -43 15 -129
16 -152 2z m140 -49 c27 -25 28 -42 5 -62 -51 -44 -103 -28 -103 31 0 21 3 41
7 44 14 15 70 6 91 -13z"/>
<path d="M5531 401 c-11 -7 -14 -34 -13 -111 1 -57 5 -107 9 -111 5 -5 40 -11
78 -15 59 -5 73 -4 85 11 19 23 -1 35 -63 35 -47 0 -48 1 -45 28 3 24 8 28 48
32 31 3 45 10 45 20 0 10 -14 17 -45 20 -40 4 -45 8 -45 30 0 23 4 25 50 28
55 4 79 17 55 32 -19 12 -140 13 -159 1z"/>
<path d="M6023 403 c-9 -3 -13 -36 -13 -113 0 -101 2 -110 21 -121 28 -15 37
-3 41 51 l3 45 44 3 c51 4 62 -7 54 -53 -6 -34 16 -61 42 -51 12 4 15 27 15
120 0 64 -4 117 -10 121 -5 3 -19 1 -31 -5 -16 -9 -20 -18 -16 -39 9 -41 -4
-53 -54 -49 -39 3 -44 6 -47 28 -7 68 -15 77 -49 63z"/>
<path d="M6649 403 c-10 -2 -35 -48 -63 -115 -26 -61 -45 -112 -44 -113 19
-16 47 -12 68 10 31 33 93 35 127 3 43 -40 87 -30 65 15 -20 39 -62 150 -62
162 0 31 -46 50 -91 38z m49 -83 c2 -14 8 -31 14 -37 18 -22 1 -43 -36 -43
-43 0 -48 8 -34 51 6 19 13 40 14 47 6 23 39 8 42 -18z"/>
</g>
</svg>
