<?xml version="1.0" standalone="no"?>
<!DOCTYPE svg PUBLIC "-//W3C//DTD SVG 20010904//EN"
 "http://www.w3.org/TR/2001/REC-SVG-20010904/DTD/svg10.dtd">
<svg version="1.0" xmlns="http://www.w3.org/2000/svg"
 width="300.000000pt" height="182.000000pt" viewBox="0 0 300.000000 182.000000"
 preserveAspectRatio="xMidYMid meet">

<g transform="translate(0.000000,182.000000) scale(0.100000,-0.100000)"
fill="#000000" stroke="none">
<path d="M1226 1529 c-416 -27 -686 -111 -686 -216 0 -42 59 -93 138 -117 17
-6 22 -3 22 12 0 185 918 270 1428 132 99 -27 172 -72 186 -115 6 -16 11 -32
12 -33 5 -9 102 42 127 65 39 38 36 77 -8 119 -126 119 -673 188 -1219 153z"/>
<path d="M1315 1384 c-220 -22 -353 -47 -417 -80 -99 -50 -105 -105 -17 -149
58 -30 59 -30 59 -6 0 29 54 68 124 90 113 35 222 46 446 46 224 0 333 -11
446 -46 70 -22 124 -61 124 -90 0 -24 1 -24 59 6 88 44 82 100 -16 149 -45 23
-132 44 -248 62 -96 14 -476 26 -560 18z"/>
<path d="M218 646 c-89 -32 -128 -82 -128 -159 0 -76 38 -130 112 -162 46 -19
231 -21 291 -3 150 45 169 241 30 309 -40 20 -66 24 -158 26 -75 2 -122 -1
-147 -11z m266 -105 c34 -32 35 -83 3 -115 -29 -29 -104 -41 -185 -31 -42 5
-62 14 -84 35 -31 31 -34 53 -14 89 24 42 53 51 158 49 86 -3 99 -6 122 -27z"/>
<path d="M663 620 c-18 -21 -33 -41 -33 -44 0 -3 73 -6 163 -6 165 0 204 -7
179 -32 -9 -9 -51 -14 -127 -16 l-115 -4 0 -38 0 -38 124 -4 c69 -2 127 -6
131 -10 22 -21 -16 -28 -158 -28 l-153 0 -37 -45 -38 -45 193 0 c167 0 199 3
234 19 68 31 91 82 58 129 -14 20 -14 24 0 44 24 33 19 63 -14 101 -40 46 -89
57 -247 57 l-128 0 -32 -40z"/>
<path d="M1130 485 l0 -175 158 0 157 0 26 33 c14 17 28 37 31 42 4 7 -40 9
-128 7 l-134 -4 0 26 0 26 93 0 93 0 32 43 33 42 -125 3 c-118 2 -126 4 -126
22 0 19 7 20 101 20 109 0 100 -4 150 63 l20 27 -190 0 -191 0 0 -175z"/>
<path d="M1562 618 l-33 -43 163 -5 c90 -3 169 -9 176 -13 19 -13 14 -44 -10
-61 -18 -13 -54 -16 -180 -16 l-158 0 0 -85 0 -85 55 0 55 0 0 45 0 45 120 0
c130 0 169 10 208 52 50 54 31 142 -38 183 -30 17 -56 20 -180 23 l-145 4 -33
-44z"/>
<path d="M2000 486 l0 -176 56 0 56 0 -4 55 c-1 30 -1 55 2 55 2 0 41 -25 85
-55 l81 -56 78 3 77 3 -120 80 c-66 44 -120 82 -120 85 0 3 55 43 122 90 l122
85 -77 3 -77 3 -83 -60 -83 -60 -5 57 -5 57 -52 3 -53 3 0 -175z"/>
<path d="M2480 491 c0 -158 1 -171 19 -181 31 -16 62 1 179 100 l107 89 3 -94
3 -95 54 0 55 0 0 159 c0 132 -3 162 -16 175 -32 33 -54 22 -188 -91 -55 -45
-102 -83 -105 -83 -3 0 -6 42 -6 92 l0 93 -52 3 -53 3 0 -170z"/>
<path d="M141 133 c-8 -21 -16 -44 -18 -50 -3 -7 2 -13 10 -13 9 0 21 18 30
43 l15 42 11 -30 c6 -16 14 -36 16 -42 5 -15 25 -17 25 -3 0 5 -7 28 -16 50
-22 54 -54 56 -73 3z"/>
<path d="M366 123 c1 -48 2 -48 38 -51 21 -2 36 1 36 7 0 6 -12 11 -26 11 -32
0 -27 22 7 31 23 7 23 7 -4 8 -34 1 -32 22 4 32 19 6 16 7 -16 8 l-40 1 1 -47z"/>
<path d="M592 121 c-12 -27 -22 -54 -22 -60 0 -14 17 -14 25 -1 9 14 72 12 78
-2 3 -10 7 -10 17 -1 10 9 7 22 -11 62 -32 68 -56 68 -87 2z m58 -13 c0 -10
-6 -18 -13 -18 -22 0 -26 11 -15 36 12 26 28 16 28 -18z"/>
<path d="M828 144 c-20 -42 18 -82 65 -70 66 16 50 96 -18 96 -28 0 -38 -5
-47 -26z m72 1 c19 -23 8 -50 -20 -50 -19 0 -26 6 -28 24 -5 35 26 53 48 26z"/>
<path d="M1066 123 c1 -42 4 -48 24 -51 12 -2 33 -1 46 2 22 6 24 11 20 44 -3
20 -5 40 -5 45 -1 4 -20 7 -43 7 l-43 0 1 -47z m57 22 c1 -5 -6 -11 -15 -13
-11 -2 -18 3 -18 13 0 17 30 18 33 0z m5 -43 c2 -7 -6 -12 -17 -12 -21 0 -27
11 -14 24 9 9 26 2 31 -12z"/>
<path d="M1310 125 c-24 -56 -24 -55 -5 -55 8 0 15 5 15 10 0 6 11 10 24 10
14 0 28 -4 31 -10 3 -5 12 -10 20 -10 10 0 9 10 -5 48 -25 67 -53 69 -80 7z
m54 -16 c-10 -16 -36 -10 -30 7 3 9 6 21 6 27 0 7 7 3 15 -7 8 -10 12 -23 9
-27z"/>
<path d="M1547 163 c-12 -11 -8 -51 6 -56 9 -3 9 -7 -2 -20 -12 -15 -11 -17 2
-17 9 0 21 9 27 21 9 17 8 23 -7 35 -16 12 -16 15 -3 24 30 20 40 11 40 -35 0
-33 4 -45 15 -45 11 0 15 12 15 50 l0 50 -43 0 c-24 0 -47 -3 -50 -7z"/>
<path d="M1911 133 c-8 -21 -16 -44 -18 -50 -3 -7 2 -13 11 -13 9 0 16 5 16
10 0 6 11 10 25 10 14 0 25 -4 25 -10 0 -5 7 -10 15 -10 19 0 19 10 -1 60 -22
54 -54 56 -73 3z m49 -14 c0 -10 -7 -19 -15 -19 -16 0 -19 9 -9 34 8 20 24 11
24 -15z"/>
<path d="M2132 123 c2 -26 9 -48 16 -51 6 -2 12 3 12 12 0 11 9 16 30 16 34 0
53 25 39 52 -7 13 -22 18 -55 18 l-45 0 3 -47z m76 16 c3 -17 -23 -33 -39 -23
-5 3 -9 14 -9 25 0 15 6 20 22 17 13 -2 24 -10 26 -19z"/>
<path d="M2362 123 c3 -48 3 -48 41 -51 21 -2 37 1 37 7 0 6 -11 11 -25 11
-31 0 -33 18 -2 30 l22 9 -22 0 c-33 1 -29 29 5 34 19 3 14 4 -16 6 l-43 1 3
-47z"/>
<path d="M2572 123 c3 -49 24 -71 30 -31 4 31 42 32 46 1 6 -43 22 -23 22 27
0 50 -13 67 -23 30 -3 -12 -14 -20 -26 -20 -14 0 -21 6 -21 20 0 11 -7 20 -16
20 -12 0 -14 -10 -12 -47z"/>
<path d="M2822 120 c-21 -51 -17 -60 18 -38 15 10 24 9 44 -2 36 -19 40 -10
17 44 -28 63 -52 62 -79 -4z m51 8 c7 -26 3 -32 -17 -25 -9 4 -12 14 -9 26 7
27 19 27 26 -1z"/>
</g>
</svg>
